<?xml version="1.0" encoding="UTF-8"?>
<svg xmlns="http://www.w3.org/2000/svg" xmlns:xlink="http://www.w3.org/1999/xlink" width="30pt" height="30pt" viewBox="0 0 30 30" version="1.1">
<g id="surface50">
<path style=" stroke:none;fill-rule:evenodd;fill:rgb(6.945907%,11.834897%,21.499962%);fill-opacity:1;" d="M 5.800781 0 C 4.261719 0 2.785156 0.609375 1.699219 1.699219 C 0.609375 2.785156 0 4.261719 0 5.800781 L 0 23.199219 C 0 24.738281 0.609375 26.214844 1.699219 27.300781 C 2.785156 28.390625 4.261719 29 5.800781 29 L 23.199219 29 C 24.738281 29 26.214844 28.390625 27.300781 27.300781 C 28.390625 26.214844 29 24.738281 29 23.199219 L 29 5.800781 C 29 4.261719 28.390625 2.785156 27.300781 1.699219 C 26.214844 0.609375 24.738281 0 23.199219 0 Z M 5.800781 0 "/>
<path style="fill:none;stroke-width:2.9;stroke-linecap:round;stroke-linejoin:round;stroke:rgb(93.498131%,73.684291%,3.804074%);stroke-opacity:1;stroke-miterlimit:3.239307;" d="M 89.726562 10.273438 C 88.910156 9.457031 87.15625 9.644531 84.851562 10.800781 C 82.542969 11.953125 79.871094 13.976562 77.425781 16.425781 C 74.976562 18.871094 72.953125 21.542969 71.800781 23.851562 C 70.644531 26.15625 70.457031 27.910156 71.273438 28.726562 C 72.089844 29.542969 73.84375 29.355469 76.148438 28.199219 C 78.457031 27.046875 81.128906 25.023438 83.574219 22.574219 C 86.023438 20.128906 88.046875 17.457031 89.199219 15.148438 C 90.355469 12.84375 90.542969 11.089844 89.726562 10.273438 Z M 89.726562 10.273438 " transform="matrix(1,0,0,1,-66,-5)"/>
<path style="fill:none;stroke-width:2.9;stroke-linecap:round;stroke-linejoin:round;stroke:rgb(93.498131%,73.684291%,3.804074%);stroke-opacity:1;stroke-miterlimit:3.239307;" d="M 71.273438 10.273438 C 70.457031 11.089844 70.644531 12.84375 71.800781 15.148438 C 72.953125 17.457031 74.976562 20.128906 77.425781 22.574219 C 79.871094 25.023438 82.542969 27.046875 84.851562 28.199219 C 87.15625 29.355469 88.910156 29.542969 89.726562 28.726562 C 90.542969 27.910156 90.355469 26.15625 89.199219 23.851562 C 88.046875 21.542969 86.023438 18.871094 83.574219 16.425781 C 81.128906 13.976562 78.457031 11.953125 76.148438 10.800781 C 73.84375 9.644531 72.089844 9.457031 71.273438 10.273438 Z M 71.273438 10.273438 " transform="matrix(1,0,0,1,-66,-5)"/>
</g>
</svg>
